<?xml version="1.0" encoding="utf-8"?>
<!-- Generator: Adobe Illustrator 20.0.0, SVG Export Plug-In . SVG Version: 6.00 Build 0)  -->
<svg version="1.1" id="Capa_1" xmlns="http://www.w3.org/2000/svg" xmlns:xlink="http://www.w3.org/1999/xlink" x="0px" y="0px"
	 viewBox="0 0 193.2 170.4" style="enable-background:new 0 0 193.2 170.4;" xml:space="preserve">
<style type="text/css">
	.st0{fill:none;stroke:#FFFFFF;stroke-width:9;stroke-miterlimit:10;}
</style>
<path class="st0" d="M140.6,92.6c0,24.3-19.7,44-44,44s-44-19.7-44-44s19.7-44,44-44S140.6,68.3,140.6,92.6z M4.6,139.6
	c0,14.5,11.8,26.3,26.3,26.3h131.5c14.5,0,26.3-11.8,26.3-26.3V53.8c0-14.5-11.8-26.3-26.3-26.3H155c-7.8,0-15.3-3.5-20.3-9.6
	l-5.6-6.8c-3.5-4.2-8.6-6.6-14-6.6H88.5h16.3H78.3c-5.4,0-10.6,2.4-14.1,6.6L58.5,18c-5,6.1-12.4,9.6-20.3,9.6h-7.4
	c-14.5,0-26.3,11.8-26.3,26.3v85.7c0,14.5,11.8,26.3,26.3,26.3h131.5c14.5,0,26.3-11.8,26.3-26.3"/>
</svg>
