<?xml version="1.0" encoding="utf-8"?>
<!-- Generator: Adobe Illustrator 20.0.0, SVG Export Plug-In . SVG Version: 6.00 Build 0)  -->
<svg version="1.1" id="Capa_1" xmlns="http://www.w3.org/2000/svg" xmlns:xlink="http://www.w3.org/1999/xlink" x="0px" y="0px"
	 viewBox="0 0 86 62" style="enable-background:new 0 0 86 62;" xml:space="preserve">
<style type="text/css">
	.st0{fill:#FFFFFF;}
</style>
<g transform="translate(0,-952.36218)">
	<path class="st0" d="M9,952.4c-5,0-9,4-9,9v44c0,5,4,9,9,9h68c5,0,9-4,9-9v-44c0-5-4-9-9-9L9,952.4L9,952.4z M9,954.4h68
		c3.9,0,7,3.1,7,7v44c0,3.9-3.1,7-7,7H9c-3.9,0-7-3.1-7-7v-44C2,957.5,5.1,954.4,9,954.4L9,954.4z M34.8,968.3
		c-0.5,0.1-0.8,0.6-0.8,1.1v28c0,0,0,0.1,0,0.1c0,0.6,0.5,1,1,0.9c0.2,0,0.3-0.1,0.4-0.2l22-14c0.4-0.3,0.6-1,0.3-1.4
		c-0.1-0.1-0.2-0.3-0.3-0.3l-22-14C35.3,968.3,35,968.2,34.8,968.3L34.8,968.3z M36,971.1l19.1,12.2L36,995.6V971.1z"/>
</g>
</svg>
